<?xml version="1.0" standalone="no"?>
<!DOCTYPE svg PUBLIC "-//W3C//DTD SVG 20010904//EN"
 "http://www.w3.org/TR/2001/REC-SVG-20010904/DTD/svg10.dtd">
<svg version="1.0" xmlns="http://www.w3.org/2000/svg"
 width="1200.000000pt" height="1195.000000pt" viewBox="0 0 1200.000000 1195.000000"
 preserveAspectRatio="xMidYMid meet">

<g transform="translate(0.000000,1195.000000) scale(0.100000,-0.100000)"
fill="#000000" stroke="none">
<path d="M5340 11909 c-1768 -86 -3477 -443 -5100 -1064 -96 -37 -183 -69
-192 -72 -10 -3 -18 -9 -18 -14 0 -34 313 -679 330 -679 3 0 82 32 176 71
1335 560 2768 902 4244 1014 412 31 662 39 1210 39 688 0 1090 -20 1650 -80
1312 -140 2584 -464 3773 -959 115 -48 210 -85 212 -83 1 1 38 71 82 153 124
235 254 518 242 529 -19 17 -688 259 -969 351 -1443 468 -2847 724 -4370 795
-247 11 -1026 11 -1270 -1z"/>
<path d="M4555 10759 c-1033 -71 -2207 -318 -3170 -666 -361 -131 -825 -326
-825 -347 0 -17 106 -155 205 -266 278 -311 738 -636 1203 -849 197 -91 180
-87 187 -43 83 543 403 746 1290 822 143 12 853 35 860 28 5 -5 684 -3782
1410 -7843 146 -820 269 -1497 272 -1505 7 -18 -46 -311 518 2860 262 1471
597 3359 746 4195 149 836 301 1692 338 1903 38 210 70 384 72 386 7 7 735
-13 859 -24 695 -59 1030 -192 1196 -475 38 -65 80 -191 95 -280 7 -44 15 -86
19 -92 7 -16 236 86 423 188 365 199 644 406 898 665 117 120 269 307 269 331
0 23 -551 250 -912 377 -817 286 -1744 494 -2653 595 -164 18 -284 29 -541 47
l-90 6 -613 -746 c-337 -410 -617 -746 -621 -746 -5 0 -284 335 -621 745
l-611 745 -42 -1 c-22 -1 -95 -6 -161 -10z"/>
</g>
</svg>
